<?xml version="1.0" encoding="utf-8"?>
<!-- Generator: Adobe Illustrator 21.0.0, SVG Export Plug-In . SVG Version: 6.00 Build 0)  -->
<svg version="1.1" xmlns="http://www.w3.org/2000/svg" xmlns:xlink="http://www.w3.org/1999/xlink" x="0px" y="0px" viewBox="0 0 512 512" style="enable-background:new 0 0 512 512;" xml:space="preserve" width="30px" height="30px">
<style type="text/css">
	.st0{fill:#1D1D1E;}
	.st1{fill:#FFFFFF;}
</style>
<g>
	<g>
		<path class="st0" d="M512,256C512,114.6,397.4,0,256,0C114.6,0,0,114.6,0,256c0,141.4,114.6,256,256,256
			C397.4,512,512,397.4,512,256z M23.3,256C23.3,127.5,127.5,23.3,256,23.3S488.7,127.5,488.7,256S384.5,488.7,256,488.7
			S23.3,384.5,23.3,256z"/>
	</g>
</g>
<g>
	<path id="Behance" class="st1" d="M388.7,183.5h-81v-20.1h81V183.5L388.7,183.5z M264.8,266c5.2,8.1,7.8,18,7.8,29.5
		c0,12-2.9,22.7-8.9,32.1c-3.8,6.3-8.6,11.5-14.2,15.8c-6.4,4.9-14,8.3-22.7,10.1c-8.8,1.8-18.2,2.7-28.4,2.7h-90.6V155h97.2
		c24.5,0.4,41.9,7.5,52.1,21.4c6.2,8.5,9.2,18.8,9.2,30.7c0,12.3-3.1,22.1-9.3,29.6c-3.5,4.2-8.6,8-15.3,11.5
		C251.8,252,259.6,257.9,264.8,266z M154.1,234.3h42.6c8.8,0,15.8-1.7,21.3-5c5.4-3.3,8.2-9.2,8.2-17.7c0-9.3-3.6-15.6-10.8-18.5
		c-6.2-2.1-14.1-3.2-23.7-3.2h-37.5V234.3z M230.2,292.6c0-10.4-4.3-17.7-12.8-21.6c-4.8-2.2-11.5-3.3-20.1-3.4h-43.2v53.6h42.5
		c8.7,0,15.5-1.1,20.4-3.5C225.8,313.3,230.2,305,230.2,292.6z M418.7,259.8c1,6.6,1.4,16.1,1.2,28.6H315
		c0.6,14.5,5.6,24.6,15.1,30.4c5.7,3.6,12.6,5.4,20.8,5.4c8.6,0,15.5-2.2,20.9-6.6c2.9-2.4,5.5-5.7,7.7-9.9H418
		c-1,8.5-5.6,17.2-14,26c-12.9,14-31,21-54.2,21c-19.2,0-36.1-6-50.8-17.8c-14.6-11.8-22-31.1-22-57.7c0-25,6.6-44.1,19.8-57.4
		c13.3-13.3,30.4-20,51.5-20c12.5,0,23.8,2.2,33.9,6.7c10,4.5,18.3,11.6,24.9,21.3C413.1,238.6,416.9,248.5,418.7,259.8z
		 M380.8,263.6c-0.7-10-4-17.6-10.1-22.8c-6-5.2-13.4-7.8-22.3-7.8c-9.7,0-17.2,2.8-22.5,8.3c-5.3,5.5-8.7,12.9-10,22.3H380.8z"/>
</g>
</svg>
