<?xml version="1.0" encoding="utf-8"?>
<!-- Generator: Adobe Illustrator 21.0.0, SVG Export Plug-In . SVG Version: 6.00 Build 0)  -->
<svg version="1.1" xmlns="http://www.w3.org/2000/svg" xmlns:xlink="http://www.w3.org/1999/xlink" x="0px" y="0px"
	 viewBox="0 0 179.5 182.8" style="enable-background:new 0 0 179.5 182.8;" xml:space="preserve">
<style type="text/css">
	.st0{fill:none;}
	.st1{fill:#727272;}
</style>
<g id="ARTBOARD_2">
	<path class="st0" d="M142.4,139.9l0.3-1.3l-0.9,1.3C142.1,139.9,142.3,139.9,142.4,139.9z"/>
	<path class="st0" d="M141.6,139.9l1.2-1.7l0.9-3.5l-8.5-1.8l5.6,7.4C141.2,140.1,141.4,140,141.6,139.9z"/>
	<path class="st0" d="M145.4,135l-2.4,3.3l-0.4,1.7c0.3,0.1,0.6,0.3,0.9,0.5c0.2,0.3,0.4,0.6,0.5,0.9l13.7-2l0.2-0.3
		c0,0-0.1-0.1-0.1-0.1c-0.4-0.4-0.5-0.9-0.4-1.4L145.4,135z"/>
	<polygon class="st0" points="142.4,111.7 148,118.5 150.1,110.6 	"/>
	<path class="st0" d="M140.8,140.4C140.8,140.3,140.8,140.3,140.8,140.4l-5.7-7.6l-2.4-0.5l-26,9.9l33.5-0.4
		C140.2,141.2,140.4,140.7,140.8,140.4z"/>
	<path class="st0" d="M146,127l5-1.9c0-0.1,0-0.1-0.1-0.2c-0.2-0.7,0.1-1.4,0.6-1.9l-3.5-4.2L146,127z"/>
	<path class="st0" d="M151.1,125.2l-5.2,2l-1.9,7.4l1.3,0.3l6.4-8.8C151.4,125.8,151.2,125.5,151.1,125.2z"/>
	<path class="st0" d="M99.8,134.2l3.4,7c0.1-0.1,0.2-0.1,0.4-0.1c0.6-0.1,1.1,0,1.6,0.3l10-13l-10.7-2.3L99.8,134.2z"/>
	<polygon class="st0" points="115.4,128.4 132.6,132.1 134.1,131.5 123.6,117.7 	"/>
	<path class="st0" d="M106.2,142.1l26.2-9.9l-17.1-3.7l-10.1,13.1c0.2,0.2,0.4,0.4,0.5,0.6L106.2,142.1z"/>
	<path class="st0" d="M157.9,139.2l-0.1,0.2l0.3,0C158.1,139.3,158,139.2,157.9,139.2z"/>
	<path class="st0" d="M151.7,104.3c-0.3-0.1-0.6-0.3-0.9-0.5c-0.3-0.3-0.4-0.6-0.5-1l-14.1,1.6l6,7.2l7.9-1.1L151.7,104.3z"/>
	<polygon class="st0" points="132.9,132.2 135,132.6 134.2,131.6 	"/>
	<polygon class="st0" points="134.4,131.6 135.2,132.7 143.8,134.5 145.7,127.3 	"/>
	<polygon class="st0" points="145.2,134.9 144,134.7 143.1,137.8 	"/>
	<path class="st0" d="M157.5,139.6l-13.5,2c0.1,0.6-0.1,1.2-0.6,1.6c-0.3,0.2-0.6,0.4-0.9,0.5l7.1,5.9L157.5,139.6z"/>
	<polygon class="st0" points="147.3,152.2 137.8,154.9 134.7,164.3 136.1,166.2 	"/>
	<path class="st0" d="M134.4,168.2l1.5-1.9l-1.4-1.8l-1.1,3.4C133.8,167.9,134.1,168,134.4,168.2z"/>
	<path class="st0" d="M137.6,155l-6.5,1.8c0,0,0,0,0,0c0.2,0.8-0.1,1.5-0.7,1.9l4.1,5.4L137.6,155z"/>
	<path class="st0" d="M123.7,117.6l10.6,13.9l11.5-4.4l2.2-8.4l-5.8-7l-15.6,2.1L123.7,117.6z M138.4,121.5c0.4-0.3,0.9-0.3,1.2,0.1
		c0.3,0.4,0.3,0.9-0.1,1.2c-0.4,0.3-0.9,0.3-1.2-0.1C138,122.4,138.1,121.8,138.4,121.5z"/>
	<path class="st0" d="M131.1,156.6l6.6-1.9l3.7-11.2c-0.3-0.1-0.5-0.3-0.7-0.5c-0.2-0.2-0.4-0.5-0.4-0.8l-9.7,13.5
		C130.7,155.9,131,156.3,131.1,156.6z"/>
	<path class="st0" d="M159.7,136.4l3.9-6.9l-9-4.1c-0.3,0.5-0.7,0.9-1.3,1c-0.5,0.1-1.1,0-1.5-0.3l-6.3,8.8l11.9,2.6
		c0.1-0.3,0.2-0.6,0.5-0.8C158.3,136.2,159.1,136.1,159.7,136.4z"/>
	<path class="st0" d="M151.9,104.4l-1.6,6.1l8.6-1.2l-5.3-5.4C153.1,104.3,152.5,104.5,151.9,104.4z"/>
	<path class="st0" d="M149.4,149.6l-7.2-6c-0.2,0-0.5,0-0.7-0.1l-3.7,11.1l9.6-2.7L149.4,149.6z"/>
	<polygon class="st0" points="94.8,123.9 104.3,126 109.9,116.1 92.2,118.6 	"/>
	<polygon class="st0" points="110.1,116.1 104.5,126 115.2,128.3 123.5,117.6 121.2,114.6 	"/>
	<polygon class="st0" points="123.6,117.4 126.3,113.9 121.4,114.6 	"/>
	<polygon class="st0" points="104.3,126.1 94.9,124 99.7,134.1 	"/>
	<path class="st0" d="M121.7,159.2l-16.4-14.7c-0.2,0.2-0.6,0.4-0.9,0.5c-0.4,0.1-0.9,0-1.2-0.1l-2.3,4.7l9.8,12.6L121.7,159.2z"/>
	<path class="st0" d="M102.4,141.8c0.2-0.2,0.4-0.4,0.6-0.5l-3.3-6.9l-1.9,3.3L102.4,141.8z"/>
	<path class="st0" d="M128.8,155.3c0.5-0.1,1.1,0,1.5,0.3l9.8-13.6c0,0,0-0.1,0-0.1l-33.9,0.4l-0.4,0.1c0,0.1,0,0.1,0.1,0.2
		c0.1,0.5,0,0.9-0.2,1.3l21.8,12.3C127.8,155.8,128.3,155.4,128.8,155.3z"/>
	<polygon class="st0" points="149.5,149.7 147.7,151.9 151,151 	"/>
	<path class="st0" d="M177.4,108.3c-0.5,0.4-1.2,0.4-1.7,0.1l-6.4,11.3l10.2,10.4v-18.9L177.4,108.3z"/>
	<path class="st0" d="M178.1,106.8c0,0.5-0.1,1-0.5,1.3c0,0,0,0-0.1,0l2,2.7v-4.2L178.1,106.8z"/>
	<path class="st0" d="M81,178.4L81,178.4L81,178.4C81,178.4,81,178.4,81,178.4z"/>
	<polygon class="st0" points="178.7,136.4 170.3,137.7 179.6,137.5 179.6,136.8 	"/>
	<path class="st0" d="M179.4,87l-15.2,21.6l10.7-1.5c-0.1-0.5,0.1-1,0.5-1.4c0.6-0.5,1.4-0.6,2-0.2l2.2-3.3V87
		C179.5,87,179.5,87,179.4,87z"/>
	<polygon class="st0" points="179,136.4 179.6,136.6 179.6,136.3 	"/>
	<polygon class="st0" points="169.3,119.8 163.8,129.4 178.8,136.2 179.6,136.1 179.6,130.3 	"/>
	<path class="st0" d="M177.5,105.6c0.1,0.1,0.2,0.1,0.2,0.2c0.2,0.2,0.4,0.5,0.4,0.9l1.5-0.2v-4L177.5,105.6z"/>
	<path class="st0" d="M179.6,175.3l-22.5,2.2c0,0.5-0.2,1-0.5,1.3c-0.3,0.3-0.8,0.5-1.2,0.4l-0.4,3.6h24.3l0.3-0.3V175.3z"/>
	<path class="st0" d="M171.8,15.7c-0.1,0.3-0.4,0.6-0.7,0.8l8.5,17.6V18.6L171.8,15.7z"/>
	<polygon class="st0" points="179.4,182.9 179.6,182.9 179.6,182.7 	"/>
	<polygon class="st0" points="177.5,79.9 179.6,82.8 179.6,75.1 	"/>
	<path class="st0" d="M177.4,80l-0.7,1.7l2.4,2.2c0.1-0.2,0.3-0.3,0.5-0.4V83L177.4,80z"/>
	<path class="st0" d="M170.9,16.5c-0.1,0-0.2,0.1-0.3,0.1c-0.2,0-0.4,0-0.6,0l-5.1,25.5l14.7,6V34.4L170.9,16.5z"/>
	<path class="st0" d="M164.8,42.3l-3.2,15.8l15.7,21.7l2.2-5.1V48.3L164.8,42.3z M169.5,58c-0.6,0.1-1.1-0.2-1.2-0.8
		c-0.1-0.6,0.2-1.1,0.8-1.2c0.6-0.1,1.1,0.2,1.2,0.8C170.4,57.3,170.1,57.9,169.5,58z"/>
	<path class="st0" d="M105.7,144.1c-0.1,0.1-0.2,0.3-0.3,0.4l16.5,14.7l5.4-1.5c0,0,0,0,0,0c-0.1-0.5,0-0.9,0.2-1.3L105.7,144.1z"/>
	<path class="st0" d="M92.6,170.2l0.3-3.1l-0.8,0.2c0,0,0,0,0,0c0.1,0.7-0.1,1.4-0.5,1.8L92.6,170.2z"/>
	<path class="st0" d="M102.2,142.3l-0.9,0l0.9,0.2C102.1,142.4,102.1,142.4,102.2,142.3z"/>
	<path class="st0" d="M93.1,164.9l-1,2.1c0,0,0,0.1,0,0.1l0.8-0.2L93.1,164.9z"/>
	<path class="st0" d="M96.4,143.8l4.3,5.6l2.3-4.6c-0.5-0.3-0.8-0.7-1-1.3c-0.1-0.3-0.1-0.5,0-0.8l-1.6-0.3l-3.4,0
		C97,142.9,96.8,143.4,96.4,143.8C96.4,143.7,96.4,143.7,96.4,143.8z"/>
	<polygon class="st0" points="100.8,149.7 93.3,164.5 93.1,166.8 110.5,162.2 	"/>
	<path class="st0" d="M88.3,168.1c-0.1-0.5,0-0.9,0.2-1.3l-6.1-8.4l-15.3,19c0.1,0,0.1,0.1,0.2,0.2c0.5,0.5,0.6,1.2,0.4,1.9l9.5,3.5
		l2.2-2.6c-0.5,0-0.9-0.2-1.3-0.5c-0.6-0.7-0.6-1.7,0.1-2.3c0.7-0.6,1.7-0.6,2.3,0.1c0.2,0.2,0.3,0.5,0.4,0.8l0.2,0l7.7-9.1
		C88.6,168.9,88.3,168.5,88.3,168.1z M79.2,168c-0.4,0.3-0.9,0.3-1.2-0.1c-0.3-0.4-0.3-0.9,0.1-1.2c0.4-0.3,0.9-0.3,1.2,0.1
		C79.5,167.2,79.5,167.7,79.2,168z"/>
	<polygon class="st0" points="157.9,149.2 151.3,151.1 157.3,156 	"/>
	<path class="st0" d="M96.9,141.5c0.1,0.2,0.2,0.5,0.2,0.7l2.8,0L96.9,141.5z"/>
	<path class="st0" d="M133.7,104.6L133.7,104.6C133.8,104.5,133.8,104.5,133.7,104.6L133.7,104.6z"/>
	<path class="st0" d="M126.7,113.7l15.4-2.1l-6-7.1c-0.2,0.2-0.5,0.3-0.8,0.4c-0.5,0.1-0.9,0-1.3-0.2l-0.4,0.1L126.7,113.7z"/>
	<path class="st0" d="M116.6,108.2l4.8,6.3l5.1-0.7l6.9-9l-16.1,1.9C117.3,107.2,117.1,107.7,116.6,108.2
		C116.6,108.2,116.6,108.2,116.6,108.2z"/>
	<path class="st0" d="M150.3,110.6l-2.1,8l3.5,4.2c0.2-0.2,0.5-0.3,0.8-0.4c0.5-0.1,1.1,0,1.5,0.3l7.6-10.8l-2.6-2.6L150.3,110.6z"
		/>
	<polygon class="st0" points="163.9,108.7 159.2,109.4 161.7,111.9 	"/>
	<path class="st0" d="M168.5,89.8c0.2-0.2,0.5-0.3,0.7-0.2l9.4-3.6c0-0.1,0-0.1-0.1-0.2c0-0.2,0-0.3,0-0.5l-1.1-0.6
		c-0.1,0.2-0.2,0.3-0.4,0.5c-0.8,0.7-2,0.6-2.7-0.1c0,0,0,0,0,0l-6.3,5l0.3-0.1C168.4,89.8,168.4,89.8,168.5,89.8z"/>
	<path class="st0" d="M158.7,139.5c-0.1,0-0.2,0-0.3-0.1l-0.7,0.1l-8.1,10.1l1.6,1.3l6.7-1.9L158.7,139.5z"/>
	<path class="st0" d="M140.2,73c-0.1,0.3-0.3,0.6-0.5,0.8c-0.6,0.6-1.6,0.6-2.3,0.2l-8,12l4.9,15c0,0,0.1,0,0.1,0
		c0.9-0.2,1.9,0.3,2.2,1.1l30.8-11.9l6.6-5.3c-0.3-0.5-0.4-1.1-0.3-1.6L140.2,73z"/>
	<polygon class="st0" points="174.1,157.2 176.2,160 179.6,154.4 179.6,146.1 	"/>
	<path class="st0" d="M64.9,134.3l-1.5-0.3l0-0.2l1.3,0.3l-2-2.7l0.1,0l-0.1,0l3.6-17.8L4,122.1c0,0.1,0,0.3-0.1,0.4L66.1,136
		L64.9,134.3z"/>
	<path class="st0" d="M65,134.2l29.1,6.5c0.6-0.4,1.3-0.4,1.9-0.1l1.7-2.9l-18.4-16.4c0,0,0,0-0.1,0.1c-0.7,0.6-1.7,0.6-2.3-0.1
		c-0.6-0.7-0.6-1.7,0.1-2.3c0.7-0.6,1.7-0.6,2.3,0.1c0.3,0.3,0.4,0.8,0.4,1.2l12.2-1.7l-3.9-7.9l-21.6,3l-3.6,17.8L65,134.2z"/>
	<polygon class="st0" points="166,146.9 174,157.1 179.6,145.8 179.6,143 	"/>
	<polygon class="st0" points="169.3,137.8 160,139.2 165.9,146.7 179.6,142.9 179.6,137.7 	"/>
	<path class="st0" d="M74.1,81.5c-0.1,0.1-0.2,0.1-0.4,0.1c-0.2,0.1-0.5,0.1-0.7,0l-6.4,31.8l21.5-3L74.1,81.5z"/>
	<path class="st0" d="M64.6,177.4c0.7-0.6,1.7-0.6,2.4-0.1l15.3-19l-16.1-22.2L3.9,122.6c-0.1,0.2-0.2,0.4-0.3,0.5L64.6,177.4
		C64.5,177.5,64.5,177.4,64.6,177.4z"/>
	<path class="st0" d="M169.5,89.6c0.1,0,0.2,0.1,0.2,0.2c0.3,0.4,0.3,0.9-0.1,1.2c-0.4,0.3-0.9,0.3-1.2-0.1
		c-0.2-0.2-0.3-0.6-0.2-0.9l-0.6,0.2l-13.8,11c0.5,0.7,0.5,1.8-0.1,2.4l5.4,5.5l4.9-0.7l15.3-21.7c-0.3-0.2-0.5-0.5-0.6-0.8
		L169.5,89.6z M163.9,102c-0.6,0.1-1.1-0.2-1.2-0.8c-0.1-0.6,0.2-1.1,0.8-1.2c0.6-0.1,1.1,0.2,1.2,0.8
		C164.8,101.3,164.4,101.8,163.9,102z"/>
	<path class="st0" d="M137.3,73.9c-0.1-0.1-0.2-0.2-0.3-0.3c-0.7-0.8-0.6-2,0.1-2.7c0.8-0.7,2-0.6,2.7,0.1c0.4,0.5,0.6,1.2,0.4,1.8
		l33.6,10.3c0.1-0.3,0.3-0.6,0.5-0.8c0.5-0.5,1.3-0.6,2-0.4l0.1-0.2l-68.1-62c-0.2,0.1-0.4,0.2-0.6,0.3l21.5,65.7L137.3,73.9z"/>
	<path class="st0" d="M113.5,106.9c-0.1-0.6,0.1-1.2,0.6-1.6c0.6-0.6,1.6-0.6,2.3-0.2l4.9-7.3L75.1,80.4c-0.2,0.4-0.5,0.8-0.9,1
		l14.1,29L113.5,106.9z"/>
	<path class="st0" d="M176.5,82.1c0.2,0.1,0.4,0.2,0.6,0.4c0.5,0.6,0.6,1.4,0.3,2.1l1.1,0.5c0-0.4,0.2-0.8,0.5-1.1l-2.3-2.1
		L176.5,82.1z"/>
	<path class="st0" d="M134.2,101l-4.9-14.9l-7.8,11.7l11.6,4.4C133.3,101.6,133.7,101.2,134.2,101z"/>
	<path class="st0" d="M116.8,105.5c0.3,0.3,0.4,0.6,0.5,1l16.3-1.9l0.1-0.2c-0.3-0.3-0.6-0.7-0.7-1.1c-0.1-0.4-0.1-0.7,0.1-1
		l-11.6-4.4l-4.9,7.3C116.6,105.3,116.7,105.4,116.8,105.5z"/>
	<path class="st0" d="M177.3,79.9l-15.8-21.8l0.1,0l-0.1,0l3.2-15.8l-55.9-22.9c-0.1,0.1-0.2,0.2-0.3,0.3l68,62L177.3,79.9z"/>
	<path class="st0" d="M67.1,180.2c-0.4,0.4-0.9,0.5-1.4,0.5l-0.3,2.2h11.4l-9.2-3.3C67.5,179.8,67.3,180,67.1,180.2z"/>
	<path class="st0" d="M79.6,180.2l-2.3,2.7h3.4l-0.9-2.7C79.7,180.2,79.7,180.2,79.6,180.2z"/>
	<path class="st0" d="M80.4,179.8c-0.2,0.1-0.3,0.2-0.5,0.3l0.9,2.8h4.7l-4.9-3.3C80.6,179.6,80.5,179.7,80.4,179.8z"/>
	<path class="st0" d="M64.4,180.1c-0.2-0.3-0.4-0.6-0.5-0.9l-22.1,3.7h23.4l0.3-2.2C65.1,180.6,64.7,180.4,64.4,180.1z"/>
	<path class="st0" d="M81.2,178.3l-0.3,0.3c0,0.3-0.1,0.6-0.2,0.8l5.1,3.4h5.7l0.6-6.3L81.2,178.3z"/>
	<path class="st0" d="M154.4,178.9l-3.2,4h3.6l0.4-3.6C154.9,179.2,154.6,179.1,154.4,178.9z"/>
	<polygon class="st0" points="176.3,160.1 179.6,164.3 179.6,154.7 	"/>
	<path class="st0" d="M154.2,178.7c-0.4-0.5-0.5-1.1-0.3-1.6l-4.8-1.7l-17.2,7.5H151l3.3-4C154.3,178.8,154.2,178.7,154.2,178.7z"/>
	<polygon class="st0" points="97.6,175.6 102.7,181.2 102.6,181.3 97.4,175.6 92.2,176.5 91.6,182.9 126.6,182.9 118.3,172.2 	"/>
	<path class="st0" d="M176.2,160.3l-2.6,4.3l-0.1-0.1l2.6-4.3l-2.1-2.7l-3.6,7.3c0.2,0.1,0.3,0.2,0.5,0.4c0.7,0.8,0.6,2-0.1,2.7
		c-0.8,0.7-2,0.6-2.7-0.1c-0.1-0.1-0.2-0.3-0.3-0.4l-11.9,5.2l-0.3,3.6c0.4,0,0.7,0.2,1,0.5c0.2,0.3,0.4,0.6,0.4,0.9l22.5-2.2v-10.7
		L176.2,160.3z"/>
	<path class="st0" d="M133.2,171.2c-0.2,0-0.5-0.1-0.7-0.3l-3.9,11.8c0.1,0,0.2,0.1,0.3,0.1h2.6l0.2-0.1L133.2,171.2z"/>
	<path class="st0" d="M128.5,182.7l3.9-11.9c-0.1,0-0.1-0.1-0.1-0.1c-0.2-0.2-0.3-0.5-0.4-0.8l-13.4,2.2l8.3,10.7h0.2
		C127.4,182.6,128,182.5,128.5,182.7z"/>
	<path class="st0" d="M93.9,143.7c-0.1,0-0.1-0.1-0.2-0.2c-0.4-0.5-0.6-1.1-0.5-1.6l-26.9-5.8l15.9,22L93.9,143.7z"/>
	<path class="st0" d="M82.5,158.2l6.1,8.4c0.3-0.4,0.7-0.7,1.2-0.9c0.9-0.2,1.8,0.3,2.2,1l1.2-2.3l1.8-20.3c-0.3,0-0.6-0.2-0.9-0.4
		L82.5,158.2z"/>
	<path class="st0" d="M134.5,164.4l-4.1-5.5c-0.2,0.1-0.4,0.3-0.7,0.3c-1,0.2-2-0.4-2.3-1.3l-5.3,1.4l10.2,9.2c0,0,0.1-0.1,0.1-0.1
		c0.3-0.3,0.6-0.4,1-0.4L134.5,164.4z"/>
	<path class="st0" d="M153.7,101.3l13.4-10.7l-30.3,11.7c0,0.1,0,0.1,0.1,0.2c0.1,0.7-0.1,1.3-0.5,1.8l14-1.6c0-0.6,0.2-1.1,0.6-1.5
		C151.8,100.4,153,100.4,153.7,101.3C153.7,101.2,153.7,101.2,153.7,101.3z"/>
	<path class="st0" d="M91.5,169.2c-0.2,0.2-0.5,0.3-0.8,0.4l0,0.1l-0.1,0l-0.1,0l0,0c-0.6,0.1-1.1-0.1-1.5-0.4l-7.6,8.9l10.7-1.8
		l0.5-6L91.5,169.2z"/>
	<polygon class="st0" points="92.2,176.4 97.3,175.5 92.7,170.6 	"/>
	<path class="st0" d="M107.1,163.3c0.3,0,0.5,0.1,0.7,0.3c0.3,0.4,0.3,0.9-0.1,1.2c-0.4,0.3-0.9,0.3-1.2-0.1
		c-0.3-0.4-0.3-0.9,0.1-1.2c0.1-0.1,0.1-0.1,0.2-0.1L93.1,167l-0.3,3.3l4.7,5.1l20.7-3.4l-7.6-9.7L107.1,163.3z"/>
	<path class="st0" d="M93.9,140.9C93.9,140.9,93.9,140.9,93.9,140.9l-28.7-6.5l1.2,1.6l27,5.8C93.4,141.5,93.6,141.2,93.9,140.9z"/>
	<path class="st0" d="M113.5,107.1l-25.2,3.5l3.9,7.9L110,116l4.3-7.7c-0.1-0.1-0.3-0.2-0.4-0.3
		C113.7,107.7,113.5,107.4,113.5,107.1z"/>
	<path class="st0" d="M114.5,108.4l-4.3,7.6l11-1.5l-4.7-6.2C115.9,108.7,115.1,108.7,114.5,108.4z"/>
	<path class="st0" d="M79.7,120.6l15,3.2l-2.6-5.3l-12.3,1.7C79.7,120.4,79.7,120.5,79.7,120.6z"/>
	<path class="st0" d="M93.3,164.1l7.3-14.6l-4.4-5.6c-0.4,0.3-0.8,0.4-1.2,0.4L93.3,164.1z"/>
	<path class="st0" d="M79.3,121.2l18.4,16.4l1.9-3.4l-5-10.3l-15-3.3C79.6,120.9,79.5,121,79.3,121.2z"/>
	<path class="st0" d="M96.6,141c0.1,0.1,0.2,0.2,0.2,0.3l3.8,0.8l1.7,0c0-0.1,0.1-0.2,0.2-0.3l-4.6-4.1l-1.6,2.9
		C96.3,140.8,96.4,140.9,96.6,141z"/>
	<path class="st0" d="M110.8,162.3l7.6,9.7l13.5-2.2c-0.1-0.4,0.1-0.9,0.4-1.3l-10.3-9.2L110.8,162.3z"/>
	<path class="st0" d="M160.1,139l8-1.2l-7.5,0.1C160.6,138.3,160.4,138.7,160.1,139z"/>
	<path class="st0" d="M151.1,151.1l-3.6,1l-11.4,14.2l1.9,2.5l-0.1,0.1l-1.8-2.4l-1.5,1.9c0,0,0.1,0.1,0.1,0.1
		c0.4,0.5,0.5,1.1,0.3,1.6l14,5.1l6.8-3l1.4-16L151.1,151.1z M153.9,156.8c-0.4,0.3-0.9,0.3-1.2-0.1c-0.3-0.4-0.3-0.9,0.1-1.2
		c0.4-0.3,0.9-0.3,1.2,0.1C154.3,155.9,154.3,156.5,153.9,156.8z"/>
	<path class="st0" d="M158.8,139.5L158,149l7.8-2.2l-5.9-7.6C159.6,139.4,159.2,139.5,158.8,139.5z"/>
	<path class="st0" d="M156,172.2l11.8-5.1c-0.2-0.6-0.1-1.3,0.3-1.8l-10.6-8.9L156,172.2z"/>
	<path class="st0" d="M153.9,177c0.1-0.2,0.2-0.4,0.4-0.6c0.3-0.3,0.8-0.4,1.2-0.4l0.3-3.5l-6.5,2.9L153.9,177z"/>
	<path class="st0" d="M157.4,156.1l10.7,8.9c0,0,0.1-0.1,0.1-0.1c0.6-0.5,1.4-0.6,2-0.3l3.6-7.3l-8-10.3l-7.9,2.2L157.4,156.1z"/>
	<path class="st0" d="M134.6,170.8c-0.4,0.3-0.8,0.5-1.3,0.4l-1.5,11.5l17.1-7.5l-13.9-5.1C134.9,170.4,134.7,170.6,134.6,170.8z"/>
	<path class="st0" d="M159.8,136.5c0.1,0.1,0.2,0.2,0.3,0.3c0.3,0.3,0.4,0.7,0.4,1l8.5-0.1l9.4-1.4l-14.7-6.8L159.8,136.5z"/>
	<path class="st0" d="M161.8,112l7.5,7.6l6.4-11.2c-0.1-0.1-0.2-0.2-0.3-0.3c-0.2-0.2-0.4-0.5-0.4-0.8l-10.8,1.5L161.8,112z"/>
	<path class="st0" d="M154.1,122.9c0.4,0.3,0.6,0.7,0.7,1.2c0.1,0.4,0,0.8-0.1,1.2l9,4.1l5.5-9.6l-7.5-7.6L154.1,122.9z"/>
	<ellipse transform="matrix(0.9776 -0.2105 0.2105 0.9776 -8.1971 36.9092)" class="st1" cx="169.3" cy="57" rx="1" ry="1"/>
	<ellipse transform="matrix(0.9776 -0.2104 0.2104 0.9776 -17.5765 36.6916)" class="st1" cx="163.6" cy="100.9" rx="1" ry="1"/>
	<ellipse transform="matrix(0.9776 -0.2107 0.2107 0.9776 -12.4644 18.2061)" class="st1" cx="79.2" cy="67.6" rx="1" ry="1"/>
	<ellipse transform="matrix(0.9776 -0.2104 0.2104 0.9776 -14.6424 25.1407)" class="st1" cx="110.9" cy="81.4" rx="1" ry="1"/>
	<ellipse transform="matrix(0.74 -0.6726 0.6726 0.74 -45.9988 125.2442)" class="st1" cx="139" cy="122.1" rx="0.9" ry="0.9"/>
	<ellipse transform="matrix(0.74 -0.6726 0.6726 0.74 -65.1683 143.7267)" class="st1" cx="153.3" cy="156.2" rx="0.9" ry="0.9"/>
	<ellipse transform="matrix(0.74 -0.6726 0.6726 0.74 -92.1612 96.3727)" class="st1" cx="78.6" cy="167.4" rx="0.9" ry="0.9"/>
	<path class="st1" d="M78.3,63.7c0.7,0,1.1-0.7,0.8-1.3c-0.1-0.3-0.4-0.5-0.7-0.5c-0.7,0-1.1,0.7-0.8,1.3
		C77.7,63.5,78,63.7,78.3,63.7z"/>
	<ellipse transform="matrix(0.9776 -0.2107 0.2107 0.9776 2.8828 37.0255)" class="st1" cx="175.2" cy="5" rx="0.9" ry="0.9"/>
	<path class="st1" d="M64,179.2c0.1,0.3,0.2,0.6,0.5,0.9c0.3,0.3,0.7,0.5,1.1,0.6l-0.3,2.2h0.2l0.3-2.2c0.5,0,1-0.1,1.4-0.5
		c0.2-0.2,0.4-0.4,0.5-0.7l9.2,3.3h0.6l2.3-2.7c0.1,0,0.1,0,0.2,0l0.9,2.7h0.1l-0.9-2.8c0.2-0.1,0.4-0.2,0.5-0.3
		c0.1-0.1,0.2-0.2,0.2-0.2l4.9,3.3h0.2l-5.1-3.4c0.2-0.2,0.2-0.5,0.2-0.8l0.3-0.3l10.8-1.8l-0.6,6.3h0.2l0.6-6.4l5.2-0.9l5.2,5.6
		l0.1-0.1l-5.1-5.6l20.6-3.4l8.3,10.7h0.2l-8.3-10.7l13.4-2.2c0.1,0.3,0.2,0.5,0.4,0.8c0,0.1,0.1,0.1,0.1,0.1l-3.9,11.9
		c-0.5-0.1-1-0.1-1.5,0.2h1.9c-0.1-0.1-0.2-0.1-0.3-0.1l3.9-11.8c0.2,0.1,0.4,0.2,0.7,0.3l-1.5,11.6l-0.2,0.1h0.4l17.2-7.5l4.8,1.7
		c-0.2,0.5-0.1,1.2,0.3,1.6c0,0,0.1,0.1,0.1,0.1l-3.3,4h0.2l3.2-4c0.2,0.2,0.5,0.3,0.8,0.3l-0.4,3.6h0.1l0.4-3.6
		c0.4,0,0.9-0.1,1.2-0.4c0.4-0.3,0.6-0.8,0.5-1.3l22.5-2.2v-0.1l-22.5,2.2c0-0.3-0.2-0.6-0.4-0.9c-0.3-0.3-0.6-0.5-1-0.5l0.3-3.6
		l11.9-5.2c0.1,0.2,0.2,0.3,0.3,0.4c0.7,0.8,1.9,0.8,2.7,0.1c0.8-0.7,0.8-1.9,0.1-2.7c-0.1-0.2-0.3-0.3-0.5-0.4l3.6-7.3l2.1,2.7
		l-2.6,4.3l0.1,0.1l2.6-4.3l3.3,4.3v-0.2l-3.2-4.2l3.2-5.4v-0.3l-3.3,5.6l-2.1-2.8l5.5-11.1v-0.4l-5.6,11.3l-7.9-10.2l13.5-3.9v-0.2
		l-13.7,3.9l-5.9-7.6l9.2-1.4l10.3-0.1v-0.1l-9.3,0.1l8.5-1.3l0.8,0.4v-0.2l-0.5-0.2l0.5-0.1v-0.2l-0.8,0.1l-15-6.9l5.4-9.6
		l10.3,10.5V130l-10.2-10.4l6.4-11.3c0.5,0.3,1.2,0.2,1.7-0.1l2.1,2.8v-0.2l-2-2.7c0,0,0,0,0.1,0c0.4-0.4,0.6-0.9,0.5-1.3l1.4-0.2
		v-0.1l-1.5,0.2c0-0.3-0.2-0.6-0.4-0.9c-0.1-0.1-0.2-0.2-0.2-0.2l2.1-3.1v-0.2l-2.2,3.3c-0.6-0.4-1.4-0.3-2,0.2
		c-0.4,0.4-0.6,0.9-0.5,1.4l-10.7,1.5L179.4,87c0.1,0,0.1,0.1,0.2,0.1v-3.5c-0.2,0.1-0.4,0.2-0.5,0.4l-2.4-2.2l0.7-1.7l2.1,3v-0.2
		l-2.1-2.9l2.1-4.8v-0.4l-2.2,5.1l-15.7-21.7l3.2-15.8l14.7,6v-0.2l-14.7-6l5.1-25.5c0.2,0,0.4,0,0.6,0c0.1,0,0.2-0.1,0.3-0.1
		l8.7,17.8v-0.3L171,16.5c0.3-0.2,0.6-0.5,0.7-0.8l7.8,2.9v-0.1l-7.8-2.9c0.1-0.3,0.1-0.6,0-0.9c-0.2-0.9-1.1-1.5-2-1.3
		c-0.9,0.2-1.5,1.1-1.3,2c0.1,0.6,0.6,1.1,1.2,1.3l-5.1,25.5l-55.8-22.9c0.3-0.4,0.4-1,0.3-1.5c-0.2-1.1-1.3-1.8-2.4-1.5
		c-1.1,0.2-1.8,1.3-1.5,2.4c0.2,1.1,1.3,1.8,2.4,1.5c0,0,0.1,0,0.1,0l21.6,65.8l-7.9,11.8L75.1,80.3c0.1-0.3,0.1-0.7,0.1-1
		c-0.2-1.1-1.3-1.8-2.4-1.5c-1.1,0.2-1.8,1.3-1.5,2.4c0.2,0.8,0.8,1.3,1.5,1.5l-6.4,31.8l-62.3,8.6c0-0.5-0.1-1-0.5-1.4
		c-0.7-0.8-1.9-0.8-2.7-0.1c-0.8,0.7-0.8,1.9-0.1,2.7c0.7,0.8,1.9,0.8,2.7,0.1c0,0,0,0,0.1-0.1l60.9,54.4c-0.3,0.4-0.5,0.9-0.4,1.5
		l-23.1,3.8h1L64,179.2z M81,178.4C81,178.4,81,178.4,81,178.4L81,178.4L81,178.4z M81.1,178.2l-0.2,0c-0.1-0.3-0.2-0.5-0.4-0.8
		c-0.6-0.7-1.7-0.7-2.3-0.1c-0.7,0.6-0.7,1.7-0.1,2.3c0.3,0.4,0.8,0.6,1.3,0.5l-2.2,2.6l-9.5-3.5c0.2-0.6,0.1-1.3-0.4-1.9
		c0-0.1-0.1-0.1-0.2-0.2l15.3-19l6.1,8.4c-0.2,0.4-0.3,0.9-0.2,1.3c0.1,0.4,0.3,0.8,0.6,1L81.1,178.2z M117.3,106.6l16.1-1.9l-6.9,9
		l-5.1,0.7l-4.8-6.3c0,0,0,0,0.1-0.1C117.1,107.7,117.3,107.2,117.3,106.6z M134,104.7c0.4,0.2,0.8,0.3,1.3,0.2
		c0.3-0.1,0.6-0.2,0.8-0.4l6,7.1l-15.4,2.1l6.9-9L134,104.7z M133.7,104.6L133.7,104.6C133.8,104.5,133.8,104.5,133.7,104.6
		L133.7,104.6z M174.2,84.9l-6.6,5.3l-30.8,11.9c-0.4-0.8-1.3-1.4-2.2-1.1c0,0-0.1,0-0.1,0l-4.9-15l8-12c0.7,0.4,1.6,0.4,2.3-0.2
		c0.2-0.2,0.4-0.5,0.5-0.8l33.6,10.3C173.7,83.8,173.8,84.4,174.2,84.9z M174.3,85C174.3,85,174.3,85,174.3,85
		c0.7,0.8,1.9,0.9,2.7,0.2c0.2-0.1,0.3-0.3,0.4-0.5l1.1,0.6c0,0.2,0,0.3,0,0.5c0,0.1,0,0.1,0.1,0.2l-9.4,3.6c-0.3,0-0.5,0-0.7,0.2
		c0,0-0.1,0.1-0.1,0.1L168,90L174.3,85z M161.6,112l-7.6,10.8c-0.4-0.3-1-0.4-1.5-0.3c-0.3,0.1-0.6,0.2-0.8,0.4l-3.5-4.2l2.1-8
		l8.7-1.2L161.6,112z M159.2,109.4l4.7-0.6l-2.2,3.1L159.2,109.4z M151.2,150.9l-1.6-1.3l8.1-10.1l0.7-0.1c0.1,0,0.2,0.1,0.3,0.1
		l-0.8,9.5L151.2,150.9z M157.9,149.2l-0.6,6.8l-5.9-4.9L157.9,149.2z M127.3,157.7C127.3,157.7,127.3,157.7,127.3,157.7l-5.4,1.5
		l-16.5-14.7c0.1-0.1,0.2-0.2,0.3-0.4l21.8,12.3C127.3,156.8,127.2,157.2,127.3,157.7z M92.1,167.3
		C92.1,167.3,92.1,167.3,92.1,167.3l0.8-0.2l-0.3,3.1l-1-1.1C92.1,168.6,92.3,168,92.1,167.3z M92.1,167.1c0,0,0-0.1,0-0.1l1-2.1
		l-0.2,2L92.1,167.1z M93.3,164.5l7.5-14.9l9.7,12.5l-17.4,4.7L93.3,164.5z M97.1,142.4l3.4,0l1.6,0.3c0,0.2,0,0.5,0,0.8
		c0.1,0.6,0.5,1,1,1.3l-2.3,4.6l-4.3-5.6c0,0,0,0,0.1,0C96.8,143.4,97,142.9,97.1,142.4z M96.9,141.5l3,0.7l-2.8,0
		C97,142,97,141.7,96.9,141.5z M101.2,142.3l0.9,0c0,0.1,0,0.1-0.1,0.2L101.2,142.3z M157.7,139c0,0,0.1,0.1,0.1,0.1l-0.2,0.3
		l-13.7,2c-0.1-0.3-0.2-0.7-0.5-0.9c-0.2-0.3-0.5-0.4-0.9-0.5l0.4-1.7l2.4-3.3l11.9,2.6C157.2,138,157.3,138.6,157.7,139z
		 M157.9,139.2c0.1,0,0.1,0.1,0.2,0.1l-0.3,0L157.9,139.2z M115.3,128.5l17.1,3.7l-26.2,9.9l-0.5,0c-0.1-0.2-0.3-0.4-0.5-0.6
		L115.3,128.5z M105.1,141.4c-0.4-0.3-1-0.4-1.6-0.3c-0.1,0-0.3,0.1-0.4,0.1l-3.4-7l4.6-8.1l10.7,2.3L105.1,141.4z M143.8,134.5
		l-8.6-1.9l-0.8-1.1l11.4-4.3L143.8,134.5z M144,134.7l1.3,0.3l-2.1,2.9L144,134.7z M135,132.6l-2.1-0.5l1.4-0.5L135,132.6z
		 M132.6,132.1l-17.2-3.7l8.2-10.7l10.5,13.8L132.6,132.1z M132.7,132.2l2.4,0.5l5.8,7.6c0,0,0,0-0.1,0.1c-0.4,0.4-0.6,0.9-0.6,1.3
		l-33.5,0.4L132.7,132.2z M135.3,132.8l8.5,1.8l-0.9,3.5l-1.2,1.7c-0.2,0.1-0.5,0.2-0.7,0.3L135.3,132.8z M142.8,138.6l-0.3,1.3
		c-0.2,0-0.4-0.1-0.6,0L142.8,138.6z M143.3,143.2c0.5-0.4,0.7-1,0.6-1.6l13.5-2l-8,10l-7.1-5.9
		C142.7,143.6,143.1,143.4,143.3,143.2z M145.3,134.9l-1.3-0.3l1.9-7.4l5.2-2c0.1,0.3,0.3,0.6,0.6,0.8L145.3,134.9z M151,124.9
		c0,0.1,0,0.1,0.1,0.2l-5,1.9l2.1-8.2l3.5,4.2C151.1,123.4,150.8,124.2,151,124.9z M148,118.5l-5.7-6.8l7.7-1.1L148,118.5z
		 M142.3,111.6l-6-7.2l14.1-1.6c0.1,0.4,0.2,0.7,0.5,1c0.2,0.3,0.5,0.4,0.9,0.5l-1.6,6.2L142.3,111.6z M148,118.7l-2.2,8.4
		l-11.5,4.4l-10.6-13.9l2.9-3.7l15.6-2.1L148,118.7z M123.6,117.4l-2.2-2.9l4.9-0.7L123.6,117.4z M123.5,117.6l-8.3,10.8l-10.7-2.3
		l5.6-9.9l11.1-1.5L123.5,117.6z M104.3,126l-9.5-2.1l-2.6-5.3l17.7-2.4L104.3,126z M104.3,126.1l-4.5,8l-4.9-10L104.3,126.1z
		 M103.1,141.3c-0.2,0.1-0.5,0.3-0.6,0.5l-4.6-4.1l1.9-3.3L103.1,141.3z M100.8,149.5l2.3-4.7c0.4,0.2,0.8,0.2,1.2,0.1
		c0.3-0.1,0.6-0.2,0.9-0.5l16.4,14.7l-11.1,3L100.8,149.5z M105.8,143.9c0.2-0.4,0.3-0.9,0.2-1.3c0-0.1,0-0.1-0.1-0.2l0.4-0.1
		l33.9-0.4c0,0,0,0.1,0,0.1l-9.8,13.6c-0.4-0.3-1-0.4-1.5-0.3c-0.5,0.1-1,0.5-1.3,0.9L105.8,143.9z M140.2,142.2
		c0.1,0.3,0.2,0.6,0.4,0.8c0.2,0.2,0.5,0.4,0.7,0.5l-3.7,11.2l-6.6,1.9c-0.1-0.4-0.4-0.7-0.7-0.9L140.2,142.2z M131.2,156.8
		C131.2,156.8,131.1,156.8,131.2,156.8l6.4-1.9l-3,9.2l-4.1-5.4C131,158.3,131.3,157.6,131.2,156.8z M134.6,164.5l1.4,1.8l-1.5,1.9
		c-0.3-0.2-0.6-0.3-0.9-0.3L134.6,164.5z M134.7,164.3l3.1-9.4l9.5-2.7l-11.2,14L134.7,164.3z M137.8,154.7l3.7-11.1
		c0.2,0.1,0.5,0.1,0.7,0.1l7.2,6l-1.9,2.3L137.8,154.7z M149.5,149.7l1.5,1.3l-3.3,0.9L149.5,149.7z M157.8,136.6
		c-0.3,0.2-0.4,0.5-0.5,0.8l-11.9-2.6l6.3-8.8c0.4,0.3,1,0.4,1.5,0.3c0.6-0.1,1.1-0.5,1.3-1l9,4.1l-3.9,6.9
		C159.1,136.1,158.3,136.2,157.8,136.6z M150.3,110.5l1.6-6.1c0.6,0.1,1.2,0,1.7-0.4l5.3,5.4L150.3,110.5z M151,101.1
		c-0.4,0.4-0.7,1-0.6,1.5l-14,1.6c0.4-0.5,0.6-1.1,0.5-1.8c0-0.1,0-0.1-0.1-0.2l30.3-11.7l-13.4,10.7c0,0,0,0,0,0
		C153,100.4,151.8,100.4,151,101.1z M121.2,114.5l-11,1.5l4.3-7.6c0.6,0.3,1.4,0.3,2-0.1L121.2,114.5z M110,116l-17.8,2.4l-3.9-7.9
		l25.2-3.5c0.1,0.3,0.2,0.7,0.5,1c0.1,0.1,0.3,0.2,0.4,0.3L110,116z M94.6,123.9l-15-3.2c0-0.1,0.1-0.2,0.1-0.3l12.3-1.7L94.6,123.9
		z M94.7,124l5,10.3l-1.9,3.4l-18.4-16.4c0.1-0.1,0.2-0.3,0.3-0.5L94.7,124z M97.8,137.8l4.6,4.1c-0.1,0.1-0.1,0.2-0.2,0.3l-1.7,0
		l-3.8-0.8c-0.1-0.1-0.1-0.2-0.2-0.3c-0.1-0.1-0.3-0.2-0.4-0.3L97.8,137.8z M96.3,143.9l4.4,5.6l-7.3,14.6l1.8-19.9
		C95.5,144.2,95.9,144.1,96.3,143.9z M93.1,164.5l-1.2,2.3c-0.4-0.8-1.3-1.2-2.2-1c-0.5,0.1-1,0.4-1.2,0.9l-6.1-8.4L94,143.8
		c0.3,0.2,0.6,0.3,0.9,0.4L93.1,164.5z M93.3,142c-0.1,0.6,0,1.2,0.5,1.6c0,0.1,0.1,0.1,0.2,0.2l-11.5,14.4l-15.9-22L93.3,142z
		 M66.3,136l-1.2-1.6l28.8,6.5c0,0,0,0-0.1,0.1c-0.3,0.3-0.5,0.6-0.6,0.9L66.3,136z M92.1,176.4l-10.7,1.8l7.6-8.9
		c0.4,0.3,1,0.5,1.5,0.4l0,0l0.1,0l0.1,0l0-0.1c0.3-0.1,0.5-0.2,0.8-0.4l1.1,1.2L92.1,176.4z M92.2,176.4l0.5-5.8l4.6,4.9
		L92.2,176.4z M97.5,175.5l-4.7-5.1l0.3-3.3l13.7-3.7c-0.1,0-0.1,0.1-0.2,0.1c-0.4,0.3-0.4,0.9-0.1,1.2c0.3,0.4,0.9,0.4,1.2,0.1
		c0.4-0.3,0.4-0.9,0.1-1.2c-0.2-0.2-0.5-0.3-0.7-0.3l3.5-0.9l7.6,9.7L97.5,175.5z M131.8,169.8l-13.5,2.2l-7.6-9.7l11.1-3l10.3,9.2
		C131.9,168.9,131.8,169.3,131.8,169.8z M132.3,168.3C132.3,168.4,132.3,168.4,132.3,168.3l-10.3-9.1l5.3-1.4c0.3,1,1.3,1.6,2.3,1.3
		c0.3-0.1,0.5-0.2,0.7-0.3l4.1,5.5l-1.2,3.5C133,167.9,132.6,168.1,132.3,168.3z M131.8,182.7l1.5-11.5c0.4,0,0.9-0.1,1.3-0.4
		c0.2-0.2,0.3-0.4,0.4-0.6l13.9,5.1L131.8,182.7z M155.5,175.9c-0.4,0-0.9,0.1-1.2,0.4c-0.2,0.2-0.3,0.4-0.4,0.6l-4.6-1.7l6.5-2.9
		L155.5,175.9z M155.8,172.2l-6.8,3l-14-5.1c0.2-0.5,0.1-1.2-0.3-1.6c0,0-0.1-0.1-0.1-0.1l1.5-1.9l1.8,2.4l0.1-0.1l-1.9-2.5
		l11.4-14.2l3.6-1l6.1,5.1L155.8,172.2z M167.7,167l-11.8,5.1l1.4-15.9l10.6,8.9C167.6,165.7,167.5,166.4,167.7,167z M173.9,157.2
		l-3.6,7.3c-0.7-0.3-1.5-0.2-2,0.3c0,0-0.1,0.1-0.1,0.1l-10.7-8.9l0.6-6.9l7.9-2.2L173.9,157.2z M165.8,146.8L158,149l0.8-9.5
		c0.4,0,0.7-0.1,1-0.3L165.8,146.8z M160.1,139c0.3-0.3,0.5-0.7,0.5-1.1l7.5-0.1L160.1,139z M178.5,136.3l-9.4,1.4l-8.5,0.1
		c0-0.4-0.2-0.7-0.4-1c-0.1-0.1-0.2-0.2-0.3-0.3l3.9-6.9L178.5,136.3z M163.7,129.3l-9-4.1c0.1-0.4,0.2-0.8,0.1-1.2
		c-0.1-0.5-0.4-0.9-0.7-1.2l7.6-10.8l7.5,7.6L163.7,129.3z M174.9,107.2c0.1,0.3,0.2,0.6,0.4,0.8c0.1,0.1,0.2,0.2,0.3,0.3l-6.4,11.2
		l-7.5-7.6l2.3-3.3L174.9,107.2z M179.3,86.9L164,108.6l-4.9,0.7l-5.4-5.5c0.6-0.7,0.7-1.7,0.1-2.4l13.8-11l0.6-0.2
		c-0.1,0.3-0.1,0.6,0.2,0.9c0.3,0.4,0.9,0.4,1.2,0.1c0.4-0.3,0.4-0.9,0.1-1.2c-0.1-0.1-0.2-0.1-0.2-0.2l9.2-3.6
		C178.8,86.4,179,86.7,179.3,86.9z M179,84c-0.3,0.3-0.4,0.7-0.5,1.1l-1.1-0.5c0.3-0.7,0.2-1.5-0.3-2.1c-0.2-0.2-0.4-0.3-0.6-0.4
		l0.1-0.2L179,84z M108.8,19.3l55.9,22.9l-3.2,15.8l0.1,0l-0.1,0l15.8,21.8l-0.8,1.8l-68-62C108.6,19.6,108.7,19.5,108.8,19.3z
		 M107.8,20c0.2-0.1,0.4-0.2,0.6-0.3l68.1,62l-0.1,0.2c-0.6-0.2-1.4-0.1-2,0.4c-0.2,0.2-0.4,0.5-0.5,0.8l-33.6-10.3
		c0.2-0.6,0-1.3-0.4-1.8c-0.7-0.8-1.9-0.8-2.7-0.1c-0.8,0.7-0.8,1.9-0.1,2.7c0.1,0.1,0.2,0.2,0.3,0.3l-8,11.9L107.8,20z M129.3,86.1
		l4.9,14.9c-0.5,0.2-0.9,0.6-1.1,1.1l-11.6-4.4L129.3,86.1z M121.4,97.9l11.6,4.4c-0.1,0.3-0.1,0.7-0.1,1c0.1,0.4,0.3,0.8,0.7,1.1
		l-0.1,0.2l-16.3,1.9c-0.1-0.4-0.2-0.7-0.5-1c-0.1-0.1-0.2-0.2-0.3-0.3L121.4,97.9z M75.1,80.4l46.2,17.4l-4.9,7.3
		c-0.7-0.4-1.6-0.4-2.3,0.2c-0.5,0.4-0.7,1-0.6,1.6l-25.2,3.5l-14.1-29C74.6,81.2,74.9,80.8,75.1,80.4z M73,81.6c0.2,0,0.5,0,0.7,0
		c0.1,0,0.3-0.1,0.4-0.1l14,28.9l-21.5,3L73,81.6z M66.5,113.5l21.6-3l3.9,7.9l-12.2,1.7c0-0.4-0.1-0.8-0.4-1.2
		c-0.6-0.7-1.7-0.7-2.3-0.1c-0.7,0.6-0.7,1.7-0.1,2.3c0.6,0.7,1.7,0.7,2.3,0.1c0,0,0,0,0.1-0.1l18.4,16.4l-1.7,2.9
		c-0.6-0.3-1.3-0.3-1.9,0.1L65,134.2l-2.1-2.9L66.5,113.5z M4,122.1l62.3-8.6l-3.6,17.8l0.1,0l-0.1,0l2,2.7l-1.3-0.3l0,0.2l1.5,0.3
		l1.2,1.6L4,122.5C4,122.4,4,122.2,4,122.1z M3.6,123.1c0.1-0.2,0.2-0.3,0.3-0.5l62.3,13.5l16.1,22.2l-15.3,19
		c-0.7-0.5-1.7-0.5-2.4,0.1c0,0-0.1,0.1-0.1,0.1L3.6,123.1z"/>
	<polygon class="st1" points="179.6,182.5 179.3,182.9 179.4,182.9 179.6,182.7 	"/>
	<path class="st1" d="M179.6,83v0.6c0.1-0.1,0.2-0.1,0.3-0.1L179.6,83z"/>
	<path class="st1" d="M126.8,183c0,0,0.1-0.1,0.1-0.1L126.8,183L126.8,183z"/>
	<path class="st1" d="M129.3,183.2c0.1,0.1,0.2,0.3,0.3,0.4l1.8-0.8h-2.6C129.1,183,129.2,183.1,129.3,183.2z"/>
</g>
<g id="ARTBOARD_1">
</g>
<g id="DESIGNED_BY_FREEPIK">
</g>
</svg>
